<svg id="visual" viewBox="0 0 900 600" width="900" height="600" xmlns="http://www.w3.org/2000/svg" xmlns:xlink="http://www.w3.org/1999/xlink" version="1.1"><rect x="0" y="0" width="900" height="600" fill="#002233"></rect><path d="M0 387L21.5 391.8C43 396.7 86 406.3 128.8 422.5C171.7 438.7 214.3 461.3 257.2 464C300 466.7 343 449.3 385.8 452.2C428.7 455 471.3 478 514.2 482.8C557 487.7 600 474.3 642.8 465C685.7 455.7 728.3 450.3 771.2 441.8C814 433.3 857 421.7 878.5 415.8L900 410L900 601L878.5 601C857 601 814 601 771.2 601C728.3 601 685.7 601 642.8 601C600 601 557 601 514.2 601C471.3 601 428.7 601 385.8 601C343 601 300 601 257.2 601C214.3 601 171.7 601 128.8 601C86 601 43 601 21.5 601L0 601Z" fill="#0066FF" stroke-linecap="round" stroke-linejoin="miter"></path></svg>